<?xml version="1.0" encoding="utf-8"?>
<!-- Generator: Adobe Illustrator 23.1.1, SVG Export Plug-In . SVG Version: 6.00 Build 0)  -->
<svg version="1.1" xmlns="http://www.w3.org/2000/svg" xmlns:xlink="http://www.w3.org/1999/xlink" x="0px" y="0px"
	 viewBox="0 0 16 16" style="enable-background:new 0 0 16 16;" xml:space="preserve">
<style type="text/css">
	.st0{display:none;}
	.st1{display:inline;}
	.st2{fill:#404040;}
	.st3{fill:#FFFFFF;}
	.st4{fill:none;}
	.st5{opacity:0.3;fill:none;}
	.st6{fill:#FF0000;}
	.st7{fill-rule:evenodd;clip-rule:evenodd;fill:#404040;}
	.st8{fill-rule:evenodd;clip-rule:evenodd;fill:#FFFFFF;}
	.st9{fill-rule:evenodd;clip-rule:evenodd;fill:#2867B2;}
	.st10{fill:#EE1376;}
	.st11{fill:#1DA1F2;}
	.st12{fill:#1877F2;}
	.st13{display:inline;fill:none;}
	.st14{display:inline;fill:#404040;}
	.st15{display:inline;opacity:0.3;fill:none;}
	.st16{display:inline;fill-rule:evenodd;clip-rule:evenodd;fill:#404040;}
	.st17{fill:none;stroke:#404040;stroke-width:2;stroke-linecap:round;}
</style>
<g id="Outter_Container" class="st0">
</g>
<g id="NEW" class="st0">
</g>
<g id="NEW_NO_Container">
	<g id="icon-social-instagram_2_">
		<g>
			<g>
				<g>
					<path class="st2" d="M8,4.9189C6.2984,4.9189,4.9189,6.2984,4.9189,8S6.2984,11.0811,8,11.0811S11.0811,9.7016,11.0811,8
						S9.7016,4.9189,8,4.9189z M8,10c-1.1046,0-2-0.8954-2-2c0-1.1046,0.8954-2,2-2c1.1046,0,2,0.8954,2,2C10,9.1046,9.1046,10,8,10
						z"/>
					<circle class="st2" cx="11.2028" cy="4.7972" r="0.72"/>
					<path class="st2" d="M10.6021,3.1c1.2671,0,2.298,1.0309,2.298,2.298v5.2041c0,1.2671-1.0309,2.298-2.298,2.298H5.3979
						c-1.2671,0-2.298-1.0309-2.298-2.298V5.3979C3.1,4.1309,4.1309,3.1,5.3979,3.1H10.6021 M10.6021,2H5.3979
						C3.5213,2,2,3.5213,2,5.3979v5.2041C2,12.4787,3.5213,14,5.3979,14h5.2041C12.4787,14,14,12.4787,14,10.602V5.3979
						C14,3.5213,12.4787,2,10.6021,2L10.6021,2z"/>
				</g>
			</g>
		</g>
	</g>
</g>
</svg>
