<svg id="NEW_NO_Container" data-name="NEW NO Container" xmlns="http://www.w3.org/2000/svg" viewBox="0 0 16 16"><defs><style>.cls-1{fill:none;}.cls-2{fill:#404040;}</style></defs><rect class="cls-1" x="-0.01" y="-0.01" width="16" height="16" transform="translate(15.98 15.99) rotate(180)"/><path class="cls-2" d="M15,0H9A1,1,0,0,0,9,2h3.58L6.28,8.29a1,1,0,0,0,0,1.41A1,1,0,0,0,7,10,1,1,0,0,0,7.7,9.7L14,3.41V7a1,1,0,0,0,2,0V1A1,1,0,0,0,15,0Z"/><path class="cls-2" d="M12,9a1,1,0,0,0-1,1v4H2V5H6A1,1,0,0,0,6,3H1A1,1,0,0,0,0,4V15a1,1,0,0,0,1,1H12a1,1,0,0,0,1-1V10A1,1,0,0,0,12,9Z"/></svg>