<svg width="47" height="47" viewBox="0 0 47 47" fill="none" xmlns="http://www.w3.org/2000/svg">
<g clip-path="url(#clip0_14_52)">
<path d="M28.6553 47C28.6553 47 31.0655 45.9871 32.3376 42.0029C33.0071 43.556 33.3419 45.2443 33.208 46.9325C31.6681 47 30.1952 47.0675 28.6553 47ZM38.6311 39.0316C31.6681 39.977 30.463 25.3233 30.463 25.3233C30.463 25.3233 32.8063 32.819 37.7607 32.5489C42.916 32.2787 41.443 24.3103 41.443 24.3103C41.443 24.3103 46.4644 37.9511 38.6311 39.0316ZM6.69516 35.6552C4.48575 36.3305 2.27635 36.8707 0 37.2759C0 37.2759 3.95014 34.2371 6.89601 24.9181L9.77493 27.5517L9.23932 29.3075C9.97578 30.3204 10.5114 31.4009 10.9131 32.6164C11.9843 30.1853 11.9174 27.4167 10.7123 25.0532L10.3775 26.1336L9.23932 25.1207L7.36467 23.2974C8.16809 20.8664 9.37322 18.5704 10.9131 16.477L11.1809 16.7471L13.3903 19.3132L12.7208 20.4612C13.7251 21.6092 14.6624 22.7572 15.5328 24.0402C15.9345 21.7443 15.8006 19.4483 15.265 17.2198L14.2607 18.1652L11.8504 15.329C14.8632 12.1552 18.5456 9.79167 22.6966 8.37356C22.4288 8.64368 22.2279 8.91379 22.0271 9.25144C20.688 11.2098 19.2821 14.7213 20.4202 20.3262C20.6211 21.204 20.8889 22.4871 21.1567 23.7701C21.7593 26.3362 22.4288 29.3075 22.6296 31.1307C23.0983 34.9799 22.6966 37.4784 21.4245 38.829C20.5541 39.7744 19.0812 40.1796 17.1396 40.1121V39.1667C17.1396 37.546 16.9387 35.9253 16.604 34.3046L16.0684 32.4813L15.265 34.2371C13.9929 37.0057 9.50712 43.7586 3.74929 45.1092C5.49003 42.273 6.4943 39.0316 6.69516 35.6552ZM23.7009 46.7299H23.3661H23.2991H23.0983C22.7635 46.7299 22.5627 46.6624 22.2949 46.6624C21.8262 46.5948 21.2236 46.5273 20.5541 46.3922C16.2692 45.6494 11.9174 45.2443 7.56553 45.0417C11.7165 42.6106 14.5285 38.3563 15.5997 36.6006C15.7336 37.4785 15.8006 38.2888 15.8006 39.1667C15.8006 39.7069 15.8006 40.2471 15.7336 40.6523L15.6667 41.3951L16.4031 41.4626C16.8718 41.5302 17.2735 41.5302 17.6752 41.5302C19.8846 41.5302 21.4915 40.9899 22.5627 39.842C24.1695 38.1537 24.6382 35.3175 24.1026 30.9957C23.8348 29.0374 23.1652 25.9986 22.5627 23.5C22.2279 22.1494 21.9601 20.9339 21.8262 20.1236C20.8219 14.9914 22.0271 11.8175 23.2322 10.1293C24.1026 8.84626 25.3746 7.83333 26.9145 7.2931H26.9815L29.1909 0H29.9274L28.3875 6.95546C28.8561 6.88793 29.1909 6.8204 29.5256 6.75287L31.5342 0.337644H32.2707L30.9316 6.55029C32.8732 6.28017 35.0157 6.07759 37.8276 5.875C38.3632 6.14511 38.765 6.61782 39.0328 7.15805L45.594 5.13218L45.8618 5.875L39.5014 8.37356C39.5684 8.50862 39.6353 8.64368 39.6353 8.77874L46.5313 7.90086L46.6652 8.64368L39.9701 9.99425C39.9701 10.1293 40.037 10.2644 40.037 10.3994L47 10.602V11.3448L40.1709 11.6149C40.1709 12.4253 40.037 13.2356 39.8362 14.046C40.2379 15.4641 40.3048 16.9497 40.037 18.4353C38.8989 15.8017 38.0285 14.9914 38.0285 14.9914C37.0912 14.5187 36.0869 14.3161 35.0157 14.3161C33.3419 14.3161 31.802 15.0589 30.7308 16.2744C29.1909 18.0302 28.3875 20.3261 28.5214 22.6897C28.6553 24.3103 28.99 26.1336 29.4587 28.4971C29.9274 30.9282 30.5299 33.967 30.9986 37.6135C31.4003 40.3822 30.9316 42.5431 29.7934 44.1638C28.7222 45.5819 27.1154 46.4598 25.4416 46.7299H25.3746H25.2407H25.1738H23.7009ZM30.6638 11.9526C29.2578 11.8851 27.8519 12.2227 26.6467 12.8305C25.6425 13.5057 24.9729 14.6537 24.906 15.8693C24.839 16.2744 24.839 16.6796 24.906 17.0848C25.4416 16.0718 26.245 15.194 27.1154 14.4511C28.7222 13.4382 30.5299 12.898 32.4046 12.8305H33.0071H33.208C33.4758 12.8305 33.6766 12.7629 33.7436 12.6954C33.7436 12.6279 33.6766 12.4928 33.4758 12.4253C32.6054 12.0876 31.6681 11.8851 30.6638 11.9526Z" fill="white"/>
</g>
<defs>
<clipPath id="clip0_14_52">
<rect width="47" height="47" fill="white"/>
</clipPath>
</defs>
</svg>
